<?xml version="1.0" encoding="utf-8"?>
<svg version="1.1" id="Layer_1" xmlns="http://www.w3.org/2000/svg" xmlns:xlink="http://www.w3.org/1999/xlink" x="0px" y="0px"
	 width="136.6px" height="136.1px" viewBox="0 0 136.6 136.1" enable-background="new 0 0 136.6 136.1" xml:space="preserve">
	<path d="M59.4,100.5c0-12.8,5.8-24.3,15-31.9c-0.1-0.9-0.2-1.8-0.2-2.8c0-2.6,1.3-5.2,3.2-9c1.9-3.2,3.2-5.8,3.9-7.1
		c0.6-2.6,1.9-8.4,3.9-16.1c0.6-4.5,1.3-8.4,1.9-11.6c0-1.9,0-3.9-0.6-5.8c-0.6-2.6-1.9-4.5-3.2-7.1c-1.9-2.6-4.5-4.5-8.4-6.5
		C70.3,0.6,66.5,0,60.7,0C55.5,0,51,0.6,47.8,2.6c-3.9,1.9-6.5,3.9-8.4,6.5s-2.6,4.5-3.2,7.1c-0.6,1.9-1.3,4.5-0.6,5.8
		c0,3.2,0.6,7.1,1.9,11.6c1.3,8.4,2.6,13.6,3.9,16.1c0.6,1.3,1.9,3.9,3.9,7.1s3.2,6.5,3.2,9c0,5.2-1.3,9.7-4.5,12.3
		c-3.2,3.2-8.4,5.8-16.8,9c-8.4,3.2-14.8,5.8-19.4,8.4S0,100.7,0,102.6V122c0,0,0,0,0,0.6c0,3.9,27.1,7.1,60.7,7.1
		c3.6,0,7.2,0,10.7-0.1C64,122.1,59.4,111.8,59.4,100.5z"/>
	<path d="M101,64.9c-19.7,0-35.6,16-35.6,35.6s16,35.6,35.6,35.6c19.7,0,35.6-16,35.6-35.6S120.6,64.9,101,64.9z M123.3,106
		c0,0.9-0.7,1.6-1.6,1.6h-11.9c-0.9,0-1.6,0.7-1.6,1.6v12.6c0,0.9-0.7,1.6-1.6,1.6H95.3c-0.9,0-1.6-0.7-1.6-1.6v-12.6
		c0-0.9-0.7-1.6-1.6-1.6H80.2c-0.9,0-1.6-0.7-1.6-1.6V94.9c0-0.9,0.7-1.6,1.6-1.6h11.9c0.9,0,1.6-0.7,1.6-1.6V79.2
		c0-0.9,0.7-1.6,1.6-1.6h11.4c0.9,0,1.6,0.7,1.6,1.6v12.5c0,0.9,0.7,1.6,1.6,1.6h11.9c0.9,0,1.6,0.7,1.6,1.6V106z"/>
</svg>
