<?xml version="1.0" encoding="utf-8"?>
<svg version="1.1" xmlns="http://www.w3.org/2000/svg" xmlns:xlink="http://www.w3.org/1999/xlink" x="0px" y="0px" width="11.2px" height="16px" viewBox="0 0 11.2 16" style="enable-background:new 0 0 11.2 16;" xml:space="preserve">
  <path class="st3" d="M10.7,8.2c0,2.2,0,4.4,0,6.7c0,0.1,0,0.1,0,0.2c0,0.2,0,0.3-0.2,0.4c-0.2,0.1-0.3-0.1-0.4-0.1c-0.5-0.4-0.9-0.8-1.4-1.1C7.9,13.5,7,12.7,6.2,12c-0.4-0.3-0.7-0.3-1.1,0c-1.3,1.1-2.6,2.2-3.9,3.3c-0.1,0.1-0.3,0.3-0.5,0.2c-0.2-0.1-0.1-0.3-0.1-0.5c0-4.6,0-9.1,0-13.7c0-0.6,0.2-0.8,0.8-0.8c2.9,0,5.7,0,8.6,0c0.7,0,0.8,0.2,0.8,0.8C10.7,3.6,10.7,5.9,10.7,8.2z"/>
</svg>
