<?xml version="1.0" encoding="utf-8"?>
<!-- Generator: Adobe Illustrator 21.0.2, SVG Export Plug-In . SVG Version: 6.00 Build 0)  -->
<svg version="1.1" id="Layer_1" xmlns="http://www.w3.org/2000/svg" xmlns:xlink="http://www.w3.org/1999/xlink" x="0px" y="0px"
	 viewBox="0 0 155.1 214.5" enable-background="new 0 0 155.1 214.5" xml:space="preserve">
<path fill="#010101" d="M155.1,45.3c0-25-20.3-45.3-45.3-45.3C89.8,0,73.1,13,67,31c-18.9,0-37.8,0-57,0c-7.3,0-9.8,2.4-9.8,9.8
	c0,56.2,0,111.2,0,167.3c0,2.4-1.2,4.9,1.2,6.1c2.4,1.2,4.9-1.2,6.1-2.4c15.9-13.4,31.8-26.9,47.6-40.3c4.9-3.7,8.6-3.7,13.4,0
	c9.8,8.6,20.8,18.3,30.5,28.1c6.1,3.7,11,8.6,17.1,13.4c1.2,0,2.4,2.4,4.9,1.2c2.4-1.2,2.4-2.4,2.4-4.9c0-1.2,0-1.2,0-2.4
	c0-28.1,0-55,0-81.8c0-12.3,0-24.6,0.2-36.8C141.9,82.2,155.1,65.4,155.1,45.3z M136.5,51.3h-11.9h-8.8V72h-12.3V51.3H82.8V39h20.7
	v-8V18.3h12.3V31v8h9h11.7V51.3z"/>
</svg>
