<?xml version="1.0" encoding="utf-8"?>
<!-- Generator: Adobe Illustrator 21.0.2, SVG Export Plug-In . SVG Version: 6.00 Build 0)  -->
<svg version="1.1" id="Layer_1" opacity="0.8" xmlns="http://www.w3.org/2000/svg" xmlns:xlink="http://www.w3.org/1999/xlink"
	 x="0px" y="0px" viewBox="0 0 94.7 94.7" style="enable-background:new 0 0 94.7 94.7;" xml:space="preserve">
<style type="text/css">
	.st0{fill:#FFFFFF;}
</style>
<path d="M82.7,94.7H12c-6.6,0-12-5.4-12-12V12C0,5.4,5.4,0,12,0h70.7c6.6,0,12,5.4,12,12v70.7C94.7,89.3,89.3,94.7,82.7,94.7z"/>
<path class="st0" d="M65.3,39.9h-0.2l16.7-16.7c1.5-1.5,1.5-3.9,0-5.5l-4.9-4.9c-1.5-1.5-4-1.5-5.5,0L50,34.3c-1.5,1.5-4,1.5-5.5,0
	L23.2,12.9c-1.5-1.5-4-1.5-5.5,0l-4.9,4.9c-1.5,1.5-1.5,4,0,5.5l21.3,21.3c1.5,1.5,1.5,3.9,0,5.5l-4.8,4.9h0.2L12.9,71.4
	c-1.5,1.5-1.5,3.9,0,5.5l4.9,4.9c1.5,1.5,4,1.5,5.5,0l21.3-21.3c1.5-1.5,4-1.5,5.5,0l21.4,21.3c1.5,1.5,4,1.5,5.5,0l4.9-4.9
	c1.5-1.5,1.5-4,0-5.5L60.5,50.2c-1.5-1.5-1.5-4,0-5.5L65.3,39.9z"/>
</svg>
