<?xml version="1.0" encoding="utf-8"?>
<!-- Generator: Adobe Illustrator 21.1.0, SVG Export Plug-In . SVG Version: 6.00 Build 0)  -->
<svg version="1.1" id="Layer_1" xmlns="http://www.w3.org/2000/svg" xmlns:xlink="http://www.w3.org/1999/xlink" x="0px" y="0px"
	 viewBox="0 0 57.1 41" style="enable-background:new 0 0 57.1 41;" xml:space="preserve">
<path d="M52.7,19.2C49.8,14.9,41,3.5,28.8,3.5S7.9,14.9,5.2,19.2c-0.6,1-0.6,2.3,0,3.4C7.9,27,16.7,38.3,28.8,38.3
	c12.2,0,21-11.4,23.9-15.7C53.4,21.6,53.4,20.1,52.7,19.2z M28.9,33.1c-6.6,0-12-5.4-12-12.2c0-6.7,5.4-12.2,12-12.2s12,5.4,12,12.2
	C40.9,27.5,35.5,33.1,28.9,33.1z"/>
<ellipse cx="28.9" cy="20.8" rx="6.3" ry="6.4"/>
</svg>
