<?xml version="1.0" encoding="utf-8"?>
<!-- Generator: Adobe Illustrator 19.1.0, SVG Export Plug-In . SVG Version: 6.00 Build 0)  -->
<svg version="1.1" xmlns="http://www.w3.org/2000/svg" xmlns:xlink="http://www.w3.org/1999/xlink" x="0px" y="0px" width="41px" height="41px" viewBox="0 0 41 41" enable-background="new 0 0 41 41" xml:space="preserve">
  <path fill="none" stroke-miterlimit="10" d="M36.8,13.3c-2-3-8-10.8-16.4-10.8C12,2.5,6.1,10.3,4.2,13.3c-0.4,0.7-0.4,1.6,0,2.3c1.9,3,7.9,10.8,16.2,10.8c8.4,0,14.4-7.8,16.4-10.8C37.3,14.9,37.3,13.9,36.8,13.3z M20.5,22.8c-4.5,0-8.2-3.7-8.2-8.4c0-4.6,3.7-8.4,8.2-8.4c4.5,0,8.2,3.7,8.2,8.4C28.7,19,25,22.8,20.5,22.8z"/>
  <ellipse fill="none" stroke-miterlimit="10" cx="20.5" cy="14.4" rx="4.3" ry="4.4"/>
  <g>
    <path  d="M1.3,37.3v-7h2.2C5.6,30.4,7,32,7,33.9c0,1.9-1.4,3.5-3.5,3.5H1.3z M6.4,33.9c0-1.6-1-2.9-2.9-2.9H1.9v5.9h1.6C5.3,36.8,6.4,35.5,6.4,33.9z"/>
    <path  d="M8.3,31.1c0-0.2,0.2-0.4,0.4-0.4c0.2,0,0.4,0.2,0.4,0.4c0,0.2-0.2,0.4-0.4,0.4C8.5,31.5,8.3,31.3,8.3,31.1zM8.5,37.3v-5H9v5H8.5z"/>
    <path  d="M10.2,36.7l0.3-0.4c0.3,0.4,0.9,0.7,1.6,0.7c0.8,0,1.3-0.4,1.3-1c0-1.4-3.2-0.6-3.2-2.4c0-0.8,0.7-1.4,1.8-1.4c0.9,0,1.4,0.3,1.8,0.7l-0.3,0.4c-0.3-0.4-0.8-0.7-1.5-0.7c-0.8,0-1.3,0.4-1.3,0.9c0,1.3,3.2,0.5,3.2,2.4c0,0.8-0.6,1.5-1.9,1.5C11.4,37.5,10.7,37.2,10.2,36.7z"/>
    <path  d="M15.2,34.8c0-1.5,1-2.6,2.4-2.6c0.9,0,1.4,0.3,1.8,0.9L19,33.4c-0.4-0.5-0.8-0.7-1.4-0.7c-1.2,0-1.9,0.9-1.9,2.1s0.7,2.2,1.9,2.2c0.6,0,1-0.2,1.4-0.7l0.4,0.3c-0.4,0.5-0.9,0.9-1.8,0.9C16.1,37.5,15.2,36.3,15.2,34.8z"/>
    <path  d="M20.3,34.8c0-1.5,0.9-2.6,2.4-2.6c1.5,0,2.4,1.2,2.4,2.6c0,1.5-0.9,2.6-2.4,2.6C21.3,37.5,20.3,36.3,20.3,34.8z M24.6,34.8c0-1.1-0.7-2.1-1.8-2.1c-1.2,0-1.8,1-1.8,2.1c0,1.1,0.7,2.2,1.8,2.2C23.9,37,24.6,35.9,24.6,34.8z"/>
    <path  d="M27.9,37.3l-2.1-5h0.6l1.8,4.4l1.8-4.4h0.6l-2.1,5H27.9z"/>
    <path  d="M31.3,34.8c0-1.5,1-2.6,2.4-2.6c1.5,0,2.4,1.2,2.4,2.7V35h-4.2c0.1,1.1,0.8,2,2,2c0.6,0,1.2-0.2,1.6-0.7l0.3,0.4c-0.5,0.5-1.1,0.8-2,0.8C32.3,37.5,31.3,36.4,31.3,34.8z M33.7,32.6c-1.2,0-1.8,1-1.8,1.9h3.7C35.5,33.7,35,32.6,33.7,32.6z"/>
    <path  d="M37.5,37.3v-5H38v0.9c0.4-0.6,1-1,1.7-1v0.6c-0.1,0-0.2,0-0.3,0c-0.5,0-1.2,0.5-1.4,0.9v3.7H37.5z"/>
  </g>
</svg>
