<?xml version="1.0" encoding="utf-8"?>
<!-- Generator: Adobe Illustrator 19.1.0, SVG Export Plug-In . SVG Version: 6.00 Build 0)  -->
<svg version="1.1" xmlns="http://www.w3.org/2000/svg" xmlns:xlink="http://www.w3.org/1999/xlink" x="0px" y="0px" width="41px" height="41px" viewBox="0 0 41 41" enable-background="new 0 0 41 41" xml:space="preserve">
  <path fill="none" stroke="#CECCCB" stroke-miterlimit="10" d="M22.2,3L25.1,9c0.2,0.4,0.5,0.6,1,0.7l6.5,1c1,0.2,1.5,1.4,0.7,2.2l-4.7,4.6c-0.3,0.3-0.4,0.7-0.4,1.1l1.1,6.5c0.2,1-0.9,1.8-1.9,1.3l-5.9-3.1c-0.4-0.2-0.8-0.2-1.2,0l-5.9,3.1c-0.9,0.5-2-0.3-1.9-1.3l1.1-6.5c0.1-0.4-0.1-0.8-0.4-1.1l-4.7-4.6c-0.8-0.7-0.3-2,0.7-2.2l6.5-1c0.4-0.1,0.8-0.3,1-0.7L19.9,3C20.4,2.1,21.7,2.1,22.2,3z"/>
  <g>
    <path fill="#CECCCB" d="M4.8,37.2v-7h4.4v0.5H5.4v2.6h3.7v0.5H5.4v3.3H4.8z"/>
    <path fill="#CECCCB" d="M10.2,34.7c0-1.5,0.9-2.6,2.4-2.6c1.5,0,2.4,1.2,2.4,2.6c0,1.5-0.9,2.6-2.4,2.6C11.1,37.3,10.2,36.1,10.2,34.7z M14.4,34.7c0-1.1-0.7-2.1-1.8-2.1c-1.2,0-1.8,1-1.8,2.1c0,1.1,0.7,2.2,1.8,2.2C13.8,36.8,14.4,35.8,14.4,34.7z"/>
    <path fill="#CECCCB" d="M16.4,37.2v-5H17V33c0.4-0.6,1-1,1.7-1v0.6c-0.1,0-0.2,0-0.3,0c-0.5,0-1.2,0.5-1.4,0.9v3.7H16.4z"/>
    <path fill="#CECCCB" d="M22.2,38.7c0.1,0.1,0.3,0.1,0.4,0.1c0.3,0,0.6-0.1,0.8-0.6l0.4-0.9l-2.1-5.1h0.6l1.8,4.4l1.8-4.4h0.6l-2.6,6.1c-0.3,0.6-0.7,0.9-1.3,0.9c-0.2,0-0.4,0-0.5-0.1L22.2,38.7z"/>
    <path fill="#CECCCB" d="M27.2,34.7c0-1.5,0.9-2.6,2.4-2.6c1.5,0,2.4,1.2,2.4,2.6c0,1.5-0.9,2.6-2.4,2.6C28.1,37.3,27.2,36.1,27.2,34.7z M31.4,34.7c0-1.1-0.7-2.1-1.8-2.1c-1.2,0-1.8,1-1.8,2.1c0,1.1,0.7,2.2,1.8,2.2C30.7,36.8,31.4,35.8,31.4,34.7z"/>
    <path fill="#CECCCB" d="M36.8,37.2v-0.7c-0.4,0.5-1.1,0.9-1.8,0.9c-1,0-1.6-0.5-1.6-1.6v-3.5h0.5v3.4c0,1,0.5,1.3,1.2,1.3c0.6,0,1.3-0.4,1.6-0.8v-3.8h0.5v5H36.8z"/>
  </g>
</svg>
