<?xml version="1.0" encoding="utf-8"?>
<!-- Generator: Adobe Illustrator 21.0.0, SVG Export Plug-In . SVG Version: 6.00 Build 0)  -->
<svg version="1.1" id="Layer_1" xmlns="http://www.w3.org/2000/svg" xmlns:xlink="http://www.w3.org/1999/xlink" x="0px" y="0px"
   viewBox="0 0 97.1 97.1" enable-background="new 0 0 97.1 97.1" xml:space="preserve">
<circle fill="#FFFFFF" cx="48.5" cy="48.5" r="47.3"/>
<path fill="#E5E5E5" d="M86.8,79c0.1,0.2,0.2,0.3,0.2,0.5C87,79.3,86.9,79.1,86.8,79z"/>
<path fill="#E5E5E5" d="M86.4,78.4c0.2,0.2,0.3,0.4,0.4,0.5C86.7,78.7,86.5,78.5,86.4,78.4z"/>
<path fill="#E5E5E5" d="M86.3,78.3c-0.2-0.2-0.4-0.4-0.6-0.6C85.9,77.9,86.1,78.1,86.3,78.3z"/>
<path fill="#E5E5E5" d="M87.1,79.6c0.1,0.2,0.1,0.4,0.1,0.5C87.2,79.9,87.2,79.7,87.1,79.6z"/>
<path fill="#E5E5E5" d="M9,79.4c0-0.1,0.1-0.1,0.1-0.2C9,79.2,9,79.3,9,79.4z"/>
<path fill="#E5E5E5" d="M8.8,79.9c0,0,0-0.1,0-0.1C8.8,79.8,8.8,79.8,8.8,79.9z"/>
<path fill="#E5E5E5" d="M9.3,78.8c0.1-0.1,0.1-0.2,0.2-0.3C9.5,78.6,9.4,78.7,9.3,78.8z"/>
<path fill="#E5E5E5" d="M48.5,95.8c15.1,0,28.5-7.1,37.2-18.1C83.3,75.6,78,73,70,70.1c-5.4-1.7-8.8-3.7-10.8-5.9s-2.9-4.7-2.9-7.8
    c0-1.7,0.7-3.4,2.2-5.9c1.2-2.5,2.2-3.7,2.5-4.7c0.5-1.7,1.2-5.4,2.5-10.5c0.5-2.9,0.7-5.4,1.2-7.6c0-1.2,0-2.5-0.5-3.7
    c-0.5-1.7-1.2-2.9-2.2-4.7c-1.2-1.7-2.9-2.9-5.4-4.2c-2.5-1.2-5.4-1.7-8.8-1.7c-3.4,0-6.4,0.6-8.8,1.8c-2.5,1.2-4.2,2.5-5.4,4.2
    c-1.2,1.7-1.7,3.4-2.2,4.7c-0.5,1.7-0.5,2.9-0.5,3.7c0,2.2,0.5,4.7,1.2,7.6c0.7,5.4,1.7,8.8,2.5,10.5c0.5,0.7,1.2,2.5,2.5,4.7
    c1.2,2.2,2.2,4.2,2.2,5.9c0,3.4-0.7,6.4-2.9,7.8c-2.2,2.2-5.4,3.7-10.8,5.9c-5.4,2.2-9.6,3.7-12.5,5.4c-0.8,0.5-1.6,1.1-2.2,1.6
    C19.5,88.5,33.2,95.8,48.5,95.8z"/>
<path fill="#E5E5E5" d="M10.9,77.2c-0.5,0.4-0.9,0.8-1.2,1.2C10,78,10.4,77.6,10.9,77.2z"/>
<circle fill="none" stroke="#b7b7b7" stroke-width="3" stroke-miterlimit="10" cx="48.5" cy="48.5" r="47.3"/>
</svg>
