<?xml version="1.0" encoding="utf-8"?>
<svg version="1.1" id="Layer_1" xmlns="http://www.w3.org/2000/svg" xmlns:xlink="http://www.w3.org/1999/xlink" x="0px" y="0px"
	 width="15.2px" height="10.1px" viewBox="0 0 15.2 10.1" enable-background="new 0 0 15.2 10.1" xml:space="preserve" fill="grey">
	<path d="M14.7,2.2H0.5C0.2,2.2,0,1.9,0,1.6V0.5C0,0.2,0.2,0,0.5,0h14.2c0.3,0,0.5,0.2,0.5,0.5v1.1
		C15.2,1.9,15,2.2,14.7,2.2z"/>
	<path d="M14.7,6.1H0.5C0.2,6.1,0,5.9,0,5.6V4.5C0,4.2,0.2,4,0.5,4h14.2c0.3,0,0.5,0.2,0.5,0.5v1.1
		C15.2,5.9,15,6.1,14.7,6.1z"/>
	<path d="M14.7,10.1H0.5C0.2,10.1,0,9.9,0,9.6V8.5c0-0.3,0.2-0.5,0.5-0.5h14.2c0.3,0,0.5,0.2,0.5,0.5v1.1
		C15.2,9.9,15,10.1,14.7,10.1z"/>
</svg>
