<?xml version="1.0" encoding="utf-8"?>
<svg version="1.1" id="Capa_1" xmlns="http://www.w3.org/2000/svg" xmlns:xlink="http://www.w3.org/1999/xlink" x="0px" y="0px"
	 width="109px" height="98.5px" viewBox="0 0 109 98.5" xml:space="preserve">
<path d="M72.6,9c-5.6,0-10.9,1.7-15.5,5l-2.6,2l-2.6-2
	c-4.5-3.3-9.9-5-15.5-5C21.3,9,9,22,9,37.9c0,25.6,37.5,46,46.6,50.6c8.8-4.8,44.4-25.8,44.4-50.6C100,22,87.7,9,72.6,9z"/>
<path d="M55.8,98.5l-2-0.9C51.6,96.6,0,72.6,0,37.9C0,17,16.3,0,36.4,0C42.8,0,49,1.7,54.5,5C60,1.7,66.2,0,72.6,0
	C92.7,0,109,17,109,37.9c0,33.7-49.2,58.6-51.3,59.6L55.8,98.5z"/>
</svg>
