<?xml version="1.0" encoding="utf-8"?>
<!-- Generator: Adobe Illustrator 21.0.0, SVG Export Plug-In . SVG Version: 6.00 Build 0)  -->
<svg version="1.1" id="Layer_1" xmlns="http://www.w3.org/2000/svg" xmlns:xlink="http://www.w3.org/1999/xlink" x="0px" y="0px"
   viewBox="0 0 23.4 25.2" enable-background="new 0 0 23.4 25.2" xml:space="preserve">
<path fill="none" stroke="grey" stroke-width="1" d="M0.8,16.6c0-2.3,0-4.7,0-7c0-0.4,0.1-0.7,0.5-1
  C4.6,6,7.8,3.4,11.1,0.8c0.5-0.4,0.8-0.4,1.3,0c3.4,2.6,6.8,5.2,10.1,7.8c0.3,0.2,0.4,0.5,0.4,0.9c0,4.8,0,9.5,0,14.3
  c0,0.6-0.3,0.9-1,0.9c-1.9,0-3.8,0-5.7,0c-0.7,0-1-0.3-1-1c0-2.8,0-5.6,0-8.4c0-0.3-0.1-0.4-0.4-0.4c-2.1,0-4.1,0-6.2,0
  c-0.3,0-0.4,0.1-0.4,0.4c0,2.8,0,5.5,0,8.3c0,0.8-0.3,1.1-1.1,1.1c-1.8,0-3.6,0-5.5,0c-0.8,0-1.1-0.3-1.1-1.1
  C0.8,21.3,0.8,19,0.8,16.6z"/>
</svg>
