<?xml version="1.0" encoding="utf-8"?>
<svg version="1.1" xmlns="http://www.w3.org/2000/svg" xmlns:xlink="http://www.w3.org/1999/xlink" x="0px" y="0px" width="41px" height="41px" viewBox="0 0 41 41" enable-background="new 0 0 41 41" xml:space="preserve">
  <path fill="none" stroke="#CECCCB" stroke-miterlimit="10" d="M9.5,18.4c0-2.3,0-4.7,0-7c0-0.4,0.1-0.7,0.5-1c3.3-2.6,6.5-5.2,9.8-7.8c0.5-0.4,0.8-0.4,1.3,0c3.4,2.6,6.8,5.2,10.1,7.8c0.3,0.2,0.4,0.5,0.4,0.9c0,4.8,0,9.5,0,14.3c0,0.6-0.3,0.9-1,0.9c-1.9,0-3.8,0-5.7,0c-0.7,0-1-0.3-1-1c0-2.8,0-5.6,0-8.4c0-0.3-0.1-0.4-0.4-0.4c-2.1,0-4.1,0-6.2,0c-0.3,0-0.4,0.1-0.4,0.4c0,2.8,0,5.5,0,8.3c0,0.8-0.3,1.1-1.1,1.1c-1.8,0-3.6,0-5.5,0c-0.8,0-1.1-0.3-1.1-1.1C9.5,23.1,9.5,20.8,9.5,18.4z"/>
  <g fill="#CECCCB">
    <path d="M12.7,37v-3.3H8.3V37H7.7v-7h0.6v3.1h4.4V30h0.6v7H12.7z"/>
    <path d="M14.7,34.5c0-1.5,0.9-2.6,2.4-2.6c1.5,0,2.4,1.2,2.4,2.6c0,1.5-0.9,2.6-2.4,2.6C15.6,37.1,14.7,35.9,14.7,34.5z M18.9,34.5c0-1.1-0.7-2.1-1.8-2.1c-1.2,0-1.8,1-1.8,2.1c0,1.1,0.7,2.2,1.8,2.2C18.3,36.6,18.9,35.6,18.9,34.5z"/>
    <path d="M26.9,37v-3.5c0-0.7-0.3-1.1-1-1.1c-0.5,0-1.2,0.4-1.4,0.9V37h-0.6v-3.5c0-0.7-0.3-1.1-1-1.1c-0.5,0-1.1,0.4-1.4,0.9V37h-0.5v-5h0.5v0.8c0.2-0.3,0.9-0.9,1.6-0.9c0.8,0,1.2,0.5,1.3,0.9c0.3-0.5,1-0.9,1.7-0.9c0.9,0,1.4,0.5,1.4,1.5V37H26.9z"/>
    <path d="M28.9,34.5c0-1.5,1-2.6,2.4-2.6c1.5,0,2.4,1.2,2.4,2.7v0.1h-4.2c0.1,1.1,0.8,2,2,2c0.6,0,1.2-0.2,1.6-0.7l0.3,0.4c-0.5,0.5-1.1,0.8-2,0.8C29.9,37.1,28.9,36,28.9,34.5z M31.3,32.3c-1.2,0-1.8,1-1.8,1.9h3.7C33.1,33.4,32.5,32.3,31.3,32.3z"/>
  </g>
</svg>
