<?xml version="1.0" encoding="utf-8"?>
<!-- Generator: Adobe Illustrator 20.1.0, SVG Export Plug-In . SVG Version: 6.00 Build 0)  -->
<svg version="1.1" xmlns="http://www.w3.org/2000/svg" xmlns:xlink="http://www.w3.org/1999/xlink" x="0px" y="0px" width="536px"
height="155.4px" viewBox="0 0 536 155.4" enable-background="new 0 0 536 155.4" xml:space="preserve">
<path fill="#FFFFFF" d="M307.6,99.7c0-8.7-0.1-17.5,0-26.2c0-2-0.4-3.1-2.6-3.1c-2.1-0.1-3-1.5-3-3.4c-0.1-3.1,0-6.3,0.1-9.4
    c0.1-2.3,1.5-3.7,3.6-4.1c7.3-1.4,14-0.6,18.7,6.1c0.8,1.1,1.2,1.2,2.2,0.2c13.6-13.2,35.7-7.3,40.6,11.1
    c2.1,8,1.8,16.3-1.4,24.1c-3.8,9.3-11.3,14.1-20.9,15.7c-4.7,0.8-9.5,1.4-14.2,0.4c-1.5-0.3-2.1,0.1-2,1.8c0.1,4.7,0.1,9.4,0,14
    c0,3-1.3,4.2-4.3,4.3c-4.1,0-8.1,0-12.2,0c-3.1,0-4.6-1.5-4.6-4.6C307.6,117.5,307.6,108.6,307.6,99.7z M328.6,84.7
    c0,2.7,0,5,0,7.2c0,1,0.2,1.7,1.4,1.8c3.1,0.2,6.1,0.5,9.1-0.1c3.5-0.7,6-2.7,7.1-6.2c1.2-3.8,1.2-7.6,0-11.4
    c-1.1-3.6-4.3-5.8-8.4-5.9c-4.5-0.1-7.3,1.9-8.7,5.7C328.2,78.9,328.9,82.1,328.6,84.7z"/>
<path fill="#FFFFFF" d="M276,86.6c-4.9,0-9.9,0.1-14.8,0c-2.5-0.1-2.2,0.9-1.3,2.5c2.3,3.9,6,5.1,10,5.2c5.1,0.2,10.2-0.6,15-2.5
    c3.5-1.4,4.6-0.9,5.9,2.7c0.8,2.4,1.7,4.7,2.5,7.1c0.9,2.8,0.3,4.4-2.2,5.5c-11.9,5.1-24,6.3-36.3,1.5c-8-3.1-12.8-9.2-14.8-17.5
    c-2.3-9.2-2-18,3.3-26.2c4.5-6.9,11.1-10.5,19.1-11.6c6.3-0.9,12.4-0.4,18.2,2.1c9.1,4.1,13.2,11.6,14.6,21.1
    c0.2,1.8,0.2,3.6,0.2,5.4c0,4.1-0.6,4.8-4.7,4.8C285.7,86.6,280.8,86.6,276,86.6z M266.2,76.2c1.8,0,3.6-0.1,5.4,0
    c2.5,0.3,2.7-1,2.2-2.9c-0.9-3.5-3.8-5.2-7.9-4.7c-3.3,0.3-6.7,3.5-6.9,6.5c-0.1,1.3,0.7,1,1.4,1
    C262.3,76.2,264.3,76.2,266.2,76.2z"/>
<path fill="#FFFFFF" d="M461.7,85.3c0-4.5-0.1-8.3,0-12.1c0-1.6-0.3-2.5-2.1-2.2c-0.1,0-0.2,0-0.3,0c-8.3-0.1-8.3-0.1-8.3-8.5
    c0-1.2,0-2.3,0-3.5c0-4,1-5,5.1-5c5.4-0.1,5.4-0.1,5.4-5.5c0-2.2,0-4.5,0-6.7c0-2.5,1.2-3.9,3.7-4c4.5-0.1,9-0.1,13.5,0
    c2.5,0,3.8,1.5,3.8,3.9c0.1,3.4,0.1,6.8,0,10.3c0,1.6,0.5,2.2,2.1,2.2c2.6-0.1,5.2-0.1,7.8,0c2.7,0.1,3.9,1.3,4,4
    c0.1,3.1,0,6.1,0,9.2c0,2.6-1.5,3.8-3.9,3.9c-2.7,0.1-5.4,0.1-8.1,0c-1.6-0.1-2,0.5-2,2c0.1,5.2,0,10.4,0.1,15.7
    c0,3.1,1.2,4.2,4.2,4.4c1.4,0,2.9-0.1,4.3-0.2c2.3-0.2,3.4,1,3.6,3.1c0.3,3.2,0.5,6.4,0.7,9.7c0.1,2.5-0.9,4.3-3.7,4.7
    c-7,1.1-13.9,1.9-20.8-0.1c-5.1-1.5-7.4-5.2-8.6-10C461.2,95,461.8,89.7,461.7,85.3z"/>
<path fill="#FFFFFF" d="M399.7,61.7c0,9.8,0.1,19.6,0,29.4c0,2,0.5,2.6,2.5,2.7c4.6,0.4,5.3,1.3,5.3,5.9c0,2.2-0.1,4.5-0.1,6.7
    c-0.1,2.2-1.1,3.7-3.2,4c-5.1,0.7-10.3,1-15.3-0.2c-6.3-1.5-9.7-6-10-12.7c-0.2-4.9-0.1-9.9-0.1-14.8c0-16.9,0-33.8,0-50.7
    c0-4,0.9-4.9,4.9-4.9c3.9,0,7.7,0,11.6,0c3.3,0,4.5,1.3,4.5,4.6C399.8,41.7,399.7,51.7,399.7,61.7z"/>
<path fill="#FFFFFF" d="M194,89.1c0-5.2-0.1-10.4,0-15.7c0-2-0.4-3-2.6-3.1c-2.2-0.1-3.2-1.5-3.2-3.6c0-3-0.1-5.9,0.1-8.9
    c0.1-2.6,1.6-4.2,4.1-4.6c7.4-1.2,14-0.3,18.5,6.7c1.2,1.9,1.7,0.2,2.2-0.5c3.8-5.3,8.9-7.2,15.3-6.4c2,0.3,2.9,1.3,2.9,3.2
    c0,4.5-0.2,9-0.8,13.5c-0.2,1.3-1,1.9-2,2.2c-0.6,0.2-1.2,0.2-1.9,0.2c-8.6-0.3-11,4.6-11.4,11.5c-0.4,7.1-0.1,14.2-0.2,21.3
    c0,4.1-1,5.1-5.1,5.1c-3.7,0-7.4,0-11.1,0c-3.6,0-4.8-1.2-4.8-4.9C194,99.8,194,94.5,194,89.1z"/>
<path fill="#FFFFFF" d="M419.3,79.3c0-6.9,0-13.8,0-20.8c0-3.4,1.1-4.5,4.5-4.5c4,0,7.9,0,11.9,0c3.5,0,4.7,1.2,4.7,4.7
    c0,10.6,0,21.2,0,31.8c0,2,0.1,3.2,2.6,3.5c2.6,0.3,4.1,2,3.8,4.9c-0.2,2.8,0.1,5.6-0.4,8.3c-0.3,1.9-1.4,3.1-3.1,3.3
    c-5.5,0.7-11.1,1.2-16.6-0.2c-5.2-1.3-7.3-4.3-7.4-9.8C419.3,93.5,419.3,86.4,419.3,79.3C419.3,79.3,419.3,79.3,419.3,79.3z"/>
<path fill="#FFFFFF" d="M442.3,35c0.3,7.4-4.4,12.3-12.3,12.6c-7.2,0.3-12.7-4.7-12.9-11.8c-0.2-7.1,4.8-12.2,12.3-12.4
    C436.9,23,442,27.7,442.3,35z"/>
<path fill="#FFFFFF" d="M130.8,0H23.5C10.5,0,0,10.5,0,23.5v107.3c0,13,10.5,23.5,23.5,23.5h107.3c13,0,23.5-10.5,23.5-23.5V23.5
C154.4,10.5,143.8,0,130.8,0z M132.4,85.7c0,25.8-20.9,46.7-46.7,46.7H33.1c-6.2,0-11.2-5-11.2-11.2V68.6
c0-25.8,20.9-46.7,46.7-46.7h17.1c25.8,0,46.7,20.9,46.7,46.7V85.7z"/>
<path fill="#FFFFFF" d="M94.9,71.3L75.5,55.7c-4.9-4-12.2-0.5-12.2,5.8v31.4c0,6.3,7.3,9.8,12.2,5.8L94.9,83
C98.6,80,98.6,74.3,94.9,71.3z"/>
<path opacity="0.19" fill="#FFFFFF" d="M276.9,78.2c-3.3,0.3-6.7,3.5-6.9,6.5c-0.1,1.3,0.7,1,1.4,1c2,0,3.9,0,5.9,0
    c1.8,0,3.6-0.1,5.4,0c2.5,0.3,2.7-1,2.2-2.9C283.9,79.5,281.1,77.8,276.9,78.2z"/>
<path opacity="0.19" fill="#FFFFFF" d="M348.9,79.7c-4.5-0.1-7.3,1.9-8.7,5.7c-1.1,3.1-0.4,6.2-0.6,8.8c0,2.7,0,5,0,7.2
    c0,1,0.2,1.7,1.4,1.8c3.1,0.2,6.1,0.5,9.1-0.1c3.5-0.7,6-2.7,7.1-6.2c1.2-3.8,1.2-7.6,0-11.4C356.3,82,353,79.8,348.9,79.7z"/>
<path opacity="0.19" fill="#FFFFFF" d="M96.7,31.5H79.6c-25.8,0-46.7,20.9-46.7,46.7v52.6c0,6.2,5,11.2,11.2,11.2h52.6
    c25.8,0,46.7-20.9,46.7-46.7V78.2C143.4,52.4,122.5,31.5,96.7,31.5z M105.9,92.6l-19.4,15.7c-4.9,4-12.2,0.5-12.2-5.8V71.1
    c0-6.3,7.3-9.8,12.2-5.8l19.4,15.7C109.6,83.9,109.6,89.6,105.9,92.6z"/>
<path opacity="0.27" fill="#FFFFFF" d="M521.9,0.2H34.1C26.4,0.2,20,6.5,20,14.3v0.3c4-3.1,9-5,14.5-5h107.3
    c13,0,23.5,10.5,23.5,23.5v107.3c0,5.7-2,10.9-5.4,14.9h361.9c7.8,0,14.1-6.4,14.1-14.1V14.3C536,6.5,529.6,0.2,521.9,0.2z
     M241.5,79.2c-0.2,1.3-1,1.9-2,2.2c-0.6,0.2-1.2,0.2-1.9,0.2c-8.6-0.3-11,4.6-11.4,11.5c-0.4,7.1-0.1,14.2-0.2,21.3
    c0,4.1-1,5.1-5.1,5.1c-3.7,0-7.4,0-11.1,0c-3.6,0-4.8-1.2-4.8-4.9c0-5.3,0-10.6,0-15.9c0-5.2-0.1-10.4,0-15.7c0-2-0.4-3-2.6-3.1
    c-2.2-0.1-3.2-1.5-3.2-3.6c0-3-0.1-5.9,0.1-8.9c0.1-2.6,1.6-4.2,4.1-4.6c7.4-1.2,14-0.3,18.5,6.7c1.2,1.9,1.7,0.2,2.2-0.5
    c3.8-5.3,8.9-7.2,15.3-6.4c2,0.3,2.9,1.3,2.9,3.2C242.3,70.3,242.1,74.8,241.5,79.2z M306.2,91.4c0,4.1-0.6,4.8-4.7,4.8
    c-4.9,0-9.7,0-14.6,0c-4.9,0-9.9,0.1-14.8,0c-2.5-0.1-2.2,0.9-1.3,2.5c2.3,3.9,6,5.1,10,5.2c5.1,0.2,10.2-0.6,15-2.5
    c3.5-1.4,4.6-0.9,5.9,2.7c0.8,2.4,1.7,4.7,2.5,7.1c0.9,2.8,0.3,4.4-2.2,5.5c-11.9,5.1-24,6.3-36.3,1.5c-8-3.1-12.8-9.2-14.8-17.5
    c-2.3-9.2-2-18,3.3-26.2c4.5-6.9,11.1-10.5,19.1-11.6c6.3-0.9,12.4-0.4,18.2,2.1C300.5,69,304.7,76.5,306,86
    C306.3,87.8,306.2,89.6,306.2,91.4z M376.8,104.4c-3.8,9.3-11.3,14.1-20.9,15.7c-4.7,0.8-9.5,1.4-14.2,0.4
    c-1.5-0.3-2.1,0.1-2,1.8c0.1,4.7,0.1,9.4,0,14c0,3-1.3,4.2-4.3,4.3c-4.1,0-8.1,0-12.2,0c-3.1,0-4.6-1.5-4.6-4.6
    c0-8.9,0-17.8,0-26.7c0-8.7-0.1-17.5,0-26.2c0-2-0.4-3.1-2.6-3.1c-2.1-0.1-3-1.5-3-3.4c-0.1-3.1,0-6.3,0.1-9.4
    c0.1-2.3,1.5-3.7,3.6-4.1c7.3-1.4,14-0.6,18.7,6.1c0.8,1.1,1.2,1.2,2.2,0.2c13.6-13.2,35.7-7.3,40.6,11.1
    C380.4,88.4,380,96.6,376.8,104.4z M418.4,109.4c0,2.2-0.1,4.5-0.1,6.7c0,2.2-1.1,3.7-3.2,4c-5.1,0.7-10.3,1-15.3-0.2
    c-6.3-1.5-9.7-6-10-12.7c-0.2-4.9-0.1-9.9-0.1-14.8c0-16.9,0-33.8,0-50.7c0-4,0.9-4.9,4.9-4.9c3.9,0,7.7,0,11.6,0
    c3.3,0,4.5,1.3,4.5,4.6c0,10,0,20,0,30c0,9.8,0.1,19.6,0,29.4c0,2,0.5,2.6,2.5,2.7C417.8,103.8,418.5,104.7,418.4,109.4z
     M440.4,32.9c7.5-0.3,12.6,4.4,12.9,11.7c0.3,7.4-4.4,12.3-12.3,12.6c-7.2,0.3-12.7-4.7-12.9-11.9
    C427.9,38.2,432.9,33.2,440.4,32.9z M457.8,108.5c-0.2,2.8,0.1,5.6-0.4,8.3c-0.3,1.9-1.4,3.1-3.1,3.3c-5.5,0.7-11.1,1.2-16.6-0.2
    c-5.2-1.3-7.3-4.3-7.4-9.8c-0.1-7.1,0-14.2,0-21.3c0,0,0,0,0,0c0-6.9,0-13.8,0-20.8c0-3.4,1.1-4.5,4.5-4.5c4,0,7.9,0,11.9,0
    c3.5,0,4.7,1.2,4.7,4.7c0,10.6,0,21.2,0,31.8c0,2,0.1,3.2,2.6,3.5C456.5,103.9,458.1,105.6,457.8,108.5z M507.6,76.7
    c0,2.6-1.5,3.8-3.9,3.9c-2.7,0.1-5.4,0.1-8.1,0c-1.6-0.1-2,0.5-2,2c0.1,5.2,0,10.4,0.1,15.7c0,3.1,1.2,4.2,4.2,4.4
    c1.4,0,2.9-0.1,4.3-0.2c2.3-0.2,3.4,1,3.6,3.1c0.3,3.2,0.5,6.5,0.7,9.7c0.1,2.5-0.9,4.3-3.7,4.7c-7,1.1-13.9,1.9-20.8-0.1
    c-5.1-1.5-7.4-5.2-8.6-10c-1.2-5.2-0.6-10.4-0.8-14.9c0-4.5-0.1-8.3,0-12.1c0-1.6-0.3-2.5-2.1-2.2c-0.1,0-0.2,0-0.3,0
    c-8.3-0.1-8.3-0.1-8.3-8.5c0-1.2,0-2.3,0-3.5c0-4,1-5,5.1-5c5.4-0.1,5.4-0.1,5.4-5.5c0-2.2,0-4.5,0-6.7c0-2.5,1.2-3.9,3.7-4
    c4.5-0.1,9-0.1,13.5,0c2.5,0,3.8,1.5,3.8,3.9c0.1,3.4,0.1,6.8,0,10.3c0,1.6,0.5,2.2,2.1,2.2c2.6-0.1,5.2-0.1,7.8,0
    c2.7,0.1,3.9,1.3,4,4C507.6,70.6,507.5,73.7,507.6,76.7z"/>
</svg>
