<?xml version="1.0" encoding="utf-8"?>
<!-- Generator: Adobe Illustrator 19.2.1, SVG Export Plug-In . SVG Version: 6.00 Build 0)  -->
<svg version="1.1" xmlns="http://www.w3.org/2000/svg" xmlns:xlink="http://www.w3.org/1999/xlink" x="0px" y="0px" width="78.7px"
	 height="28.5px" viewBox="0 0 78.7 28.5" style="enable-background:new 0 0 78.7 28.5;" xml:space="preserve">
		<path style="fill:#1C63AA;" d="M30.5,20.1c0-2.3,0-4.7,0-7c0-0.5-0.1-0.8-0.7-0.8c-0.6,0-0.8-0.4-0.8-0.9c0-0.8,0-1.7,0-2.5
			c0-0.6,0.4-1,1-1.1c2-0.4,3.7-0.2,5,1.6c0.2,0.3,0.3,0.3,0.6,0.1c3.6-3.5,9.5-1.9,10.8,3c0.6,2.1,0.5,4.4-0.4,6.5
			c-1,2.5-3,3.8-5.6,4.2c-1.3,0.2-2.5,0.4-3.8,0.1c-0.4-0.1-0.6,0-0.5,0.5c0,1.3,0,2.5,0,3.8c0,0.8-0.4,1.1-1.1,1.1
			c-1.1,0-2.2,0-3.2,0c-0.8,0-1.2-0.4-1.2-1.2C30.5,24.9,30.5,22.5,30.5,20.1z M36.2,16.1c0,0.7,0,1.3,0,1.9c0,0.3,0.1,0.4,0.4,0.5
			c0.8,0.1,1.6,0.1,2.4,0c0.9-0.2,1.6-0.7,1.9-1.7c0.3-1,0.3-2,0-3.1c-0.3-1-1.2-1.6-2.2-1.6c-1.2,0-2,0.5-2.3,1.5
			C36,14.6,36.2,15.4,36.2,16.1z"/>
		<path style="fill:#1C63AA;" d="M22.3,16.6c-1.3,0-2.6,0-4,0c-0.7,0-0.6,0.2-0.3,0.7c0.6,1,1.6,1.4,2.7,1.4c1.4,0.1,2.7-0.2,4-0.7
			c0.9-0.4,1.2-0.2,1.6,0.7c0.2,0.6,0.5,1.3,0.7,1.9c0.2,0.7,0.1,1.2-0.6,1.5c-3.2,1.4-6.4,1.7-9.7,0.4c-2.1-0.8-3.4-2.5-4-4.7
			c-0.6-2.5-0.5-4.8,0.9-7c1.2-1.8,3-2.8,5.1-3.1c1.7-0.2,3.3-0.1,4.9,0.6c2.4,1.1,3.5,3.1,3.9,5.6c0.1,0.5,0.1,1,0.1,1.4
			c0,1.1-0.2,1.3-1.2,1.3C24.9,16.6,23.6,16.6,22.3,16.6z M19.7,13.8c0.5,0,1,0,1.4,0c0.7,0.1,0.7-0.3,0.6-0.8
			c-0.3-0.9-1-1.4-2.1-1.3c-0.9,0.1-1.8,1-1.8,1.7c0,0.3,0.2,0.3,0.4,0.3C18.6,13.8,19.1,13.8,19.7,13.8z"/>
		<path style="fill:#1C63AA;" d="M69.3,16.3c0-1.2,0-2.2,0-3.2c0-0.4-0.1-0.7-0.5-0.6c0,0,0,0-0.1,0c-2.2,0-2.2,0-2.2-2.3
			c0-0.3,0-0.6,0-0.9c0-1.1,0.3-1.3,1.4-1.4c1.4,0,1.4,0,1.4-1.5c0-0.6,0-1.2,0-1.8c0-0.7,0.3-1.1,1-1.1c1.2,0,2.4,0,3.6,0
			c0.7,0,1,0.4,1,1c0,0.9,0,1.8,0,2.7c0,0.4,0.1,0.6,0.6,0.6c0.7,0,1.4,0,2.1,0c0.7,0,1,0.3,1.1,1.1c0,0.8,0,1.6,0,2.5
			c0,0.7-0.4,1-1,1c-0.7,0-1.4,0-2.2,0c-0.4,0-0.5,0.1-0.5,0.5c0,1.4,0,2.8,0,4.2c0,0.8,0.3,1.1,1.1,1.2c0.4,0,0.8,0,1.1-0.1
			c0.6-0.1,0.9,0.3,1,0.8c0.1,0.9,0.1,1.7,0.2,2.6c0,0.7-0.2,1.2-1,1.3c-1.9,0.3-3.7,0.5-5.6,0c-1.4-0.4-2-1.4-2.3-2.7
			C69.2,18.9,69.4,17.5,69.3,16.3z"/>
		<path style="fill:#1C63AA;" d="M54.9,10c0,2.6,0,5.3,0,7.9c0,0.5,0.1,0.7,0.7,0.7c1.2,0.1,1.4,0.3,1.4,1.6c0,0.6,0,1.2,0,1.8
			c0,0.6-0.3,1-0.9,1.1c-1.4,0.2-2.7,0.3-4.1,0c-1.7-0.4-2.6-1.6-2.7-3.4c0-1.3,0-2.7,0-4c0-4.5,0-9.1,0-13.6c0-1.1,0.2-1.3,1.3-1.3
			c1,0,2.1,0,3.1,0c0.9,0,1.2,0.3,1.2,1.2C54.9,4.6,54.9,7.3,54.9,10z"/>
		<path style="fill:#1C63AA;" d="M1.5,17.3c0-1.4,0-2.8,0-4.2c0-0.5-0.1-0.8-0.7-0.8c-0.6,0-0.8-0.4-0.9-1c0-0.8,0-1.6,0-2.4
			c0-0.7,0.4-1.1,1.1-1.2c2-0.3,3.7-0.1,4.9,1.8c0.3,0.5,0.5,0,0.6-0.1c1-1.4,2.4-1.9,4.1-1.7c0.5,0.1,0.8,0.4,0.8,0.8
			c0,1.2,0,2.4-0.2,3.6c0,0.3-0.3,0.5-0.5,0.6c-0.2,0-0.3,0.1-0.5,0.1c-2.3-0.1-2.9,1.2-3,3.1c-0.1,1.9,0,3.8,0,5.7
			c0,1.1-0.3,1.4-1.4,1.4c-1,0-2,0-3,0c-1,0-1.3-0.3-1.3-1.3C1.5,20.1,1.5,18.7,1.5,17.3z"/>
		<path style="fill:#1C63AA;" d="M59.2,14.7c0-1.9,0-3.7,0-5.6c0-0.9,0.3-1.2,1.2-1.2c1.1,0,2.1,0,3.2,0c0.9,0,1.2,0.3,1.3,1.3
			c0,2.8,0,5.7,0,8.5c0,0.5,0,0.9,0.7,0.9c0.7,0.1,1.1,0.5,1,1.3c-0.1,0.7,0,1.5-0.1,2.2C66.3,22.7,66,23,65.6,23
			c-1.5,0.2-3,0.3-4.4,0c-1.4-0.3-2-1.1-2-2.6C59.1,18.5,59.2,16.6,59.2,14.7C59.2,14.7,59.2,14.7,59.2,14.7z"/>
		<path style="fill:#1C63AA;" d="M65.3,3.1c0.1,2-1.2,3.3-3.3,3.4c-1.9,0.1-3.4-1.3-3.4-3.2c-0.1-1.9,1.3-3.3,3.3-3.3
			C63.9-0.1,65.2,1.2,65.3,3.1z"/>
</svg>
