<svg version="1.1" xmlns="http://www.w3.org/2000/svg" xmlns:xlink="http://www.w3.org/1999/xlink" x="0px" y="0px" viewBox="0 0 6.9 27" enable-background="new 0 0 6.9 27" xml:space="preserve">
  <path d="M0.5,3.5c0-1.6,1.4-3,3-3c1.6,0,2.9,1.4,2.9,3s-1.4,3-2.9,3
      C1.9,6.5,0.5,5.1,0.5,3.5z"/>
  <path d="M0.5,13.5c0-1.6,1.4-3,3-3c1.6,0,2.9,1.4,2.9,3s-1.4,3-2.9,3
      C1.9,16.5,0.5,15.1,0.5,13.5z"/>
  <path d="M0.5,23.5c0-1.6,1.4-3,3-3c1.6,0,2.9,1.4,2.9,3s-1.4,3-2.9,3
      C1.9,26.5,0.5,25.1,0.5,23.5z"/>
</svg>
