<?xml version="1.0" encoding="utf-8"?>
<svg version="1.1" xmlns="http://www.w3.org/2000/svg" xmlns:xlink="http://www.w3.org/1999/xlink" x="0px" y="0px" width="4.7px" height="20.5px" viewBox="0 0 4.7 20.5" xml:space="preserve">
  <path d="M0,2.4C0,1.1,1.1,0,2.4,0c1.2,0,2.3,1.1,2.3,2.4S3.6,4.7,2.4,4.7C1.1,4.7,0,3.6,0,2.4z"/>
  <path d="M0,10.2C0,9,1.1,7.9,2.4,7.9c1.2,0,2.3,1.1,2.3,2.4s-1.1,2.4-2.3,2.4C1.1,12.6,0,11.5,0,10.2z"/>
  <path d="M0,18.1c0-1.3,1.1-2.4,2.4-2.4c1.2,0,2.3,1.1,2.3,2.4c0,1.3-1.1,2.4-2.3,2.4 C1.1,20.5,0,19.4,0,18.1z"/>
</svg>
