<?xml version="1.0" encoding="utf-8"?>
<!-- Generator: Adobe Illustrator 19.1.0, SVG Export Plug-In . SVG Version: 6.00 Build 0)  -->
<svg version="1.1" xmlns="http://www.w3.org/2000/svg" xmlns:xlink="http://www.w3.org/1999/xlink" x="0px" y="0px" width="30.2px" height="28.9px" viewBox="0 0 30.2 28.9" style="enable-background:new 0 0 30.2 28.9;" xml:space="preserve">
  <g class="svg-fill-3">
    <path class="st1" d="M28.6,20.2c-2.5,0-5.1,0-7.6,0.1c-3.1,0.1-6.2,0.5-9.3,1c-1.7,0.2-3.4,0.5-5,1c-1,0.2-1.9,0.4-2.9,0.6c-0.9-2.2-1.8-4.4-2.7-6.7c4-2.1,7.6-4.8,11-7.7c2.4-2.1,4.8-4.2,7.1-6.4c0.4-0.4,0.8-0.9,1.3-1.3c0.3,0.1,0.4,0.3,0.5,0.6C23.5,7.6,26,13.9,28.6,20.2z"/>
    <path class="st1" d="M28.6,20.2C26,13.9,23.5,7.6,20.9,1.3c-0.1-0.2-0.2-0.5-0.5-0.6c1.1-1.2,1.7-1,2.4,0.5c1.9,4.5,3.8,8.9,5.6,13.4c0.5,1.2,1,2.3,1.5,3.5C30.6,19.7,30.2,20.2,28.6,20.2z"/>
    <path class="st1" d="M6.7,22.2c1.6-0.4,3.3-0.7,5-1c0.1,0.6-0.1,1.1,0.4,1.6c0.2,0.2,0.3,0.6,0.2,0.8c-0.6,1.1,0,2,0.3,2.9c0.4,1.3,0.1,1.8-1.2,2.1c-0.6,0.1-1.2,0.1-1.7,0.2c-1.2,0.1-1.3-1-1.3-1.6C8.4,25.3,7.4,23.8,6.7,22.2z"/>
    <path class="st1" d="M1.1,16.2c0.9,2.2,1.8,4.4,2.7,6.7c-1.1,0.4-1.6,0.2-2.1-0.8c-0.2-0.4-0.4-0.8-0.8-1.1c-0.6-0.4-0.7-1-0.7-1.6c0-0.4,0-0.9-0.1-1.3C-0.2,17.1,0.1,16.5,1.1,16.2z"/>
  </g>
</svg>
