<?xml version="1.0" encoding="utf-8"?>
<!-- Generator: Adobe Illustrator 19.2.1, SVG Export Plug-In . SVG Version: 6.00 Build 0)  -->
<svg version="1.1" xmlns="http://www.w3.org/2000/svg" xmlns:xlink="http://www.w3.org/1999/xlink" x="0px" y="0px" width="40.3px"
	 height="20.9px" viewBox="0 0 40.3 20.9" style="enable-background:new 0 0 40.3 20.9;" xml:space="preserve">
<g id="Capa_22">
</g>
<g id="background">
</g>
<g id="Capa_24">
</g>
<g id="_x2B__4.video">
	<g id="_x26__stories_copia_2">
		<g id="header_copia_2">
		</g>
	</g>
	<g id="_x2A_header_x5F_nav_copia_2">
	</g>
	<g id="_x2A_navbar_copia_2">
	</g>
</g>
<g id="_x2B__3.story_1_">
	<g id="_x26__stories_copia">
		<g id="header_copia">
		</g>
	</g>
	<g id="_x2A_header_x5F_nav_copia">
	</g>
	<g id="_x2A_navbar_copia">
	</g>
</g>
<g id="_x2B__2.search">
	<g id="_x26__stories">
		<g id="header">
		</g>
	</g>
	<g id="_x26__Categories">
	</g>
	<g id="_x26__Tags">
	</g>
	<g id="_x26__search">
	</g>
	<g id="_x2A_header_x5F_nav">
	</g>
	<g id="_x2A_navbar">
	</g>
</g>
<g id="Capa_45">
</g>
<g id="home_options" style="display:none;">
</g>
<g id="Capa_19">
	<path style="fill:#1C63AA;" d="M39.6,12.8c-1.6-1.6-3.5-2.5-5.6-3.3c0,0,0,0,0,0c-0.1-0.3-0.4-0.3-0.7-0.3c0,0,0,0,0,0
		c-0.1-0.1-0.2-0.1-0.3-0.1c-0.3-0.2-0.6-0.4-0.9-0.5c-0.8-0.2-1.4-0.5-1.4-1.5c0-0.1-0.1-0.2-0.1-0.4c0,0,0,0-0.1,0c0,0,0,0,0.1,0
		c0,0-0.1-0.1-0.1-0.1c0-0.3-0.1-0.6-0.3-0.9c-1.2-2.7-3.4-4-6.1-4.8c-1.2-0.4-2.5-0.6-3.8-0.8c-2.2-0.4-4.2,0.1-6.1,1
		c-1.4,0.6-2.4,1.8-3.2,3.1c-0.2,0.4-0.5,0.6-1,0.6c-1.6,0-3.3,0-4.9,0.3C3.6,5.2,2.2,5.5,1,6.2C-0.3,7-0.2,8.5,0.6,9.4
		c0.5,0.5,1.1,1,1.7,1.4c1.8,1.1,3.8,2,5.8,2.6c0.9,0.3,1.5,0.6,1.9,1.6c0.7,1.9,2.2,3.2,3.9,4.1c2.8,1.3,5.7,2,8.7,1.7
		c1.6-0.2,3.1-0.8,4.3-1.9c0.1-0.1,0.2-0.2,0.1-0.3c0,0,0.1,0,0.1-0.1c0.1,0,0.1,0,0.1-0.1c0,0,0.1,0,0.1-0.1c0.1,0,0.1,0,0.1-0.1
		c0,0,0.1,0,0.1-0.1c0.1,0,0.1,0,0.1-0.1c0,0,0.1,0,0.1-0.1c0.1,0,0.1,0,0.1-0.1c0,0,0.1,0,0.1-0.1c0.1,0,0.1,0,0.1-0.1
		c0,0,0.1,0,0.1-0.1c0.1,0,0.1,0,0.1-0.1c0,0,0.1,0,0.1-0.1c0.4-0.2,0.6-0.6,1.2-0.6c1.7,0.1,3.3,0,5-0.1c1.5-0.1,3-0.3,4.5-0.9
		c0.2-0.1,0.4,0,0.4-0.3c0,0,0.1,0,0.1,0c0.1,0,0.1,0,0.1,0c0.1,0,0.1-0.1,0.2-0.1c0.1,0.1,0.1,0,0.1,0
		C40.5,14.7,40.7,13.8,39.6,12.8z M28.6,8.4c-0.6,0-1.3,0.1-1.9,0.1c-0.1,0-0.2,0-0.3-0.1C26,8,26.3,7.4,26.3,6.9
		c0-0.4,0.3-0.3,0.6-0.3c0.1,0,0.2,0,0.4,0c0,0,0,0,0,0c0.1,0,0.3,0,0.4,0c1,0,1.3,0.3,1.4,1.4C29,8.2,28.9,8.4,28.6,8.4z M21.3,7.8
		c0.1-0.5,0.1-1,0.2-1.5c0-0.3,0.1-0.4,0.4-0.4c0.5,0.1,1.1,0.2,1.6,0.2c0.4,0.1,0.6,0.2,0.6,0.7c0,0.3,0,0.7,0.1,1
		c0,0.4-0.2,0.6-0.6,0.6c-0.6-0.1-1.3-0.1-1.9-0.2C21.4,8.3,21.3,8.1,21.3,7.8z M16.6,7c0-0.6,0.3-1.1,0.6-1.6
		c0.1-0.3,0.5-0.2,0.8-0.1c0.4,0.2,0.8,0.2,1.1,0.2c0.4,0,0.6,0.2,0.5,0.6c-0.1,0.5-0.2,1-0.3,1.5c-0.1,0.3-0.3,0.4-0.6,0.3
		c-0.6-0.2-1.2-0.3-1.8-0.5C16.6,7.4,16.6,7.2,16.6,7z M12,5.2c0.3-0.5,0.6-0.9,1.1-1.3c0.1-0.1,0.2-0.1,0.4-0.1
		C14,4,14.6,4.2,15.2,4.5c0.2,0.1,0.2,0.3,0.1,0.5c-0.2,0.5-0.3,1-0.4,1.5c0,0.3-0.2,0.4-0.6,0.3c-0.7-0.4-1.4-0.7-2.1-1.1
		C12.1,5.5,11.9,5.4,12,5.2z"/>
</g>
</svg>
