<?xml version="1.0" encoding="utf-8"?>
<!-- Generator: Adobe Illustrator 21.0.0, SVG Export Plug-In . SVG Version: 6.00 Build 0)  -->
<svg version="1.1" id="Layer_1" xmlns="http://www.w3.org/2000/svg" xmlns:xlink="http://www.w3.org/1999/xlink" x="0px" y="0px"
	 viewBox="0 0 23.8 29.3" enable-background="new 0 0 23.8 29.3" xml:space="preserve">
<path d="M23.3,25.3c0-0.2,0-0.3-0.2-0.4c-0.8-0.8-1.5-1.6-2.3-2.4c-0.1-0.1-0.2-0.3-0.2-0.5c0-2.4,0-4.8,0-7.2c0-0.5,0-1.1-0.1-1.6
	c-0.6-3.5-2.5-5.9-5.8-7.1C14.4,6,14,6,13.9,5.8c-0.1-0.2,0-0.6,0-0.9c0-1.1-0.8-2-1.8-2.1c-0.9-0.1-1.9,0.6-2.1,1.7
	c-0.1,0.4,0,0.7,0,1.1c0,0.2-0.1,0.3-0.2,0.3c-1.6,0.4-3,1.2-4.1,2.4C4,10,3.2,12.2,3.2,14.6c0,2.5,0,5,0,7.4c0,0.2,0,0.3-0.2,0.4
	c-0.6,0.6-1.2,1.3-1.8,1.9c-0.6,0.5-0.8,1-0.7,1.8c0,0.3,0.1,0.3,0.3,0.3c2.8,0,5.6,0,8.4,0c0.2,1.3,1.3,2.3,2.6,2.3s2.4-1,2.6-2.3
	c2.8,0,5.5,0,8.3,0c0.1,0,0.1,0,0.2,0c0.2,0,0.3-0.1,0.3-0.3S23.2,25.6,23.3,25.3z"/>
</svg>
