<?xml version="1.0" encoding="utf-8"?>
<!-- Generator: Adobe Illustrator 20.1.0, SVG Export Plug-In . SVG Version: 6.00 Build 0)  -->
<svg version="1.1" id="Layer_1" xmlns="http://www.w3.org/2000/svg" xmlns:xlink="http://www.w3.org/1999/xlink" x="0px" y="0px"
	 width="5.6px" height="5.6px" viewBox="0 0 5.6 5.6" enable-background="new 0 0 5.6 5.6" xml:space="preserve">
<g id="Capa_3">
</g>
<g id="Layer_1_1_">
	<g id="replit-logo">
	</g>
</g>
<g id="Capa_6" display="none">
</g>
<g id="Capa_7">
</g>
<g id="Capa_4">
</g>
<g id="Capa_5">
</g>
<g id="Capa_8">
	<g>
		<g>
			<path fill="#FFFFFF" d="M0.4,5.2C0.4,5.2,0.4,5.2,0.4,5.2C0.4,5.2,0.4,5.2,0.4,5.2C0.5,5.1,0.5,5.1,0.6,5C0.6,5,0.7,4.9,0.7,4.9
				c0,0,0,0,0.1,0c0,0,0,0,0,0s0,0,0,0s0,0,0,0.1c0,0-0.1,0.1-0.1,0.1S0.5,5.2,0.4,5.2C0.4,5.2,0.4,5.2,0.4,5.2
				C0.4,5.2,0.4,5.2,0.4,5.2z"/>
		</g>
		<g>
			<path fill="#FFFFFF" d="M4.9,4.9L4.9,4.9C4.9,4.9,4.9,4.9,4.9,4.9C5,4.9,5,5,5.1,5s0.1,0.1,0.1,0.1c0,0,0,0,0,0.1c0,0,0,0,0,0
				s0,0,0,0s0,0-0.1,0c0,0-0.1-0.1-0.1-0.1S4.9,5,4.9,4.9C4.9,4.9,4.9,4.9,4.9,4.9C4.9,4.9,4.9,4.9,4.9,4.9z"/>
		</g>
		<circle fill="none" stroke="#FFFFFF" stroke-width="5.878602e-02" stroke-miterlimit="10" cx="2.8" cy="2.8" r="1.4"/>
		<g>
			<path fill="#FFFFFF" d="M0.4,0.4L0.4,0.4C0.4,0.4,0.4,0.4,0.4,0.4c0.1,0.1,0.2,0.1,0.2,0.2c0.1,0.1,0.1,0.1,0.1,0.1
				c0,0,0,0,0,0.1c0,0,0,0,0,0s0,0,0,0c0,0-0.1,0-0.1,0c0,0-0.1-0.1-0.1-0.1C0.5,0.6,0.5,0.5,0.4,0.4C0.4,0.4,0.4,0.4,0.4,0.4
				C0.4,0.4,0.4,0.4,0.4,0.4z"/>
		</g>
		<g>
			<path fill="#FFFFFF" d="M4.9,0.8L4.9,0.8C4.9,0.7,4.9,0.7,4.9,0.8C4.9,0.7,5,0.6,5,0.6s0.1-0.1,0.1-0.1c0,0,0,0,0.1,0
				c0,0,0,0,0,0s0,0,0,0s0,0,0,0.1c0,0-0.1,0.1-0.1,0.1C5,0.7,5,0.7,4.9,0.8C4.9,0.8,4.9,0.8,4.9,0.8C4.9,0.8,4.9,0.8,4.9,0.8z"/>
		</g>
		<g>
			<path fill="#FFFFFF" d="M2.8,0.8C2.8,0.8,2.8,0.8,2.8,0.8C2.8,0.8,2.8,0.7,2.8,0.8c0-0.1,0-0.1,0-0.2s0-0.1,0-0.1c0,0,0,0,0,0
				c0,0,0,0,0,0s0,0,0,0c0,0,0,0,0,0c0,0,0,0.1,0,0.1S2.9,0.7,2.8,0.8C2.9,0.7,2.8,0.8,2.8,0.8L2.8,0.8z"/>
		</g>
		<g>
			<path fill="#FFFFFF" d="M4.9,2.8C4.9,2.8,4.9,2.8,4.9,2.8C4.9,2.8,4.9,2.8,4.9,2.8c0.1,0,0.1,0,0.2,0s0.1,0,0.1,0c0,0,0,0,0,0
				c0,0,0,0,0,0s0,0,0,0c0,0,0,0,0,0c0,0-0.1,0-0.1,0S4.9,2.9,4.9,2.8C4.9,2.9,4.9,2.8,4.9,2.8C4.9,2.8,4.9,2.8,4.9,2.8z"/>
		</g>
		<g>
			<path fill="#FFFFFF" d="M2.8,4.9C2.8,4.9,2.8,4.9,2.8,4.9C2.8,4.9,2.9,4.9,2.8,4.9c0,0.1,0,0.1,0,0.2s0,0.1,0,0.1c0,0,0,0,0,0
				c0,0,0,0,0,0s0,0,0,0c0,0,0,0,0,0c0,0,0-0.1,0-0.1S2.8,4.9,2.8,4.9C2.8,4.9,2.8,4.9,2.8,4.9C2.8,4.9,2.8,4.9,2.8,4.9z"/>
		</g>
		<g>
			<path fill="#FFFFFF" d="M0.8,2.8L0.8,2.8C0.8,2.8,0.7,2.9,0.8,2.8c-0.1,0-0.1,0-0.2,0s-0.1,0-0.1,0c0,0,0,0,0,0c0,0,0,0,0,0
				s0,0,0,0c0,0,0,0,0,0c0,0,0.1,0,0.1,0S0.7,2.8,0.8,2.8C0.7,2.8,0.8,2.8,0.8,2.8C0.8,2.8,0.8,2.8,0.8,2.8z"/>
		</g>
	</g>
</g>
</svg>
