<?xml version="1.0" encoding="utf-8"?>
<!-- Generator: Adobe Illustrator 20.1.0, SVG Export Plug-In . SVG Version: 6.00 Build 0)  -->
<svg version="1.1" id="Layer_1" xmlns="http://www.w3.org/2000/svg" xmlns:xlink="http://www.w3.org/1999/xlink" x="0px" y="0px"
	 width="12.6px" height="12.6px" viewBox="0 0 12.6 12.6" enable-background="new 0 0 12.6 12.6" xml:space="preserve">
		<g>
			<path fill="#D9D9D9" d="M0.9,11.7C0.9,11.7,0.9,11.7,0.9,11.7c0-0.1,0-0.1,0.1-0.2c0.1-0.1,0.2-0.2,0.3-0.3
				C1.4,11.1,1.5,11,1.5,11c0,0,0.1,0,0.1-0.1c0,0,0,0,0,0s0,0,0,0s0,0.1-0.1,0.1c-0.1,0.1-0.2,0.2-0.3,0.3
				c-0.1,0.1-0.2,0.2-0.3,0.3C1,11.7,1,11.7,0.9,11.7C0.9,11.7,0.9,11.7,0.9,11.7z"/>
		</g>
		<g>
			<path fill="#D9D9D9" d="M10.8,10.8L10.8,10.8c0.1,0,0.1,0,0.2,0.1c0.1,0.1,0.2,0.2,0.3,0.3c0.1,0.1,0.2,0.2,0.3,0.3
				c0,0,0,0.1,0.1,0.1c0,0,0,0,0,0s0,0,0,0s-0.1,0-0.1-0.1c-0.1-0.1-0.2-0.2-0.3-0.3c-0.1-0.1-0.2-0.2-0.3-0.3
				C10.9,11,10.9,10.9,10.8,10.8C10.9,10.9,10.8,10.8,10.8,10.8z"/>
		</g>
		<circle fill="none" stroke="#D9D9D9" stroke-width="0.1313" stroke-miterlimit="10" cx="6.3" cy="6.3" r="3.1"/>
		<g>
			<path fill="#D9D9D9" d="M0.8,0.8L0.8,0.8c0.1,0,0.1,0,0.2,0.1C1.1,1,1.2,1.1,1.3,1.2c0.1,0.1,0.2,0.2,0.3,0.3c0,0,0,0.1,0.1,0.1
				c0,0,0,0,0,0s0,0,0,0c-0.1,0-0.2,0-0.2,0C1.5,1.6,1.4,1.5,1.2,1.3C1.1,1.2,1,1.1,1,1C0.9,1,0.9,0.9,0.8,0.8
				C0.9,0.9,0.8,0.8,0.8,0.8z"/>
		</g>
		<g>
			<path fill="#D9D9D9" d="M10.8,1.7L10.8,1.7c0-0.1,0-0.1,0.1-0.2c0.1-0.1,0.2-0.2,0.3-0.3c0.1-0.1,0.2-0.2,0.3-0.3
				c0,0,0.1,0,0.1-0.1c0,0,0,0,0,0s0,0,0,0s0,0.1-0.1,0.1c-0.1,0.1-0.2,0.2-0.3,0.3c-0.1,0.1-0.2,0.2-0.2,0.3
				C11,1.7,11,1.7,10.8,1.7C10.9,1.7,10.8,1.7,10.8,1.7z"/>
		</g>
		<g>
			<path fill="#D9D9D9" d="M6.3,1.7C6.3,1.7,6.3,1.7,6.3,1.7c0,0-0.1-0.1-0.1-0.1c0-0.1,0-0.2,0-0.3c0-0.1,0-0.2,0-0.3
				c0,0,0-0.1,0-0.1c0,0,0,0,0,0s0,0,0,0c0,0,0,0,0,0.1c0,0.1,0,0.2,0,0.3c0,0.1,0,0.2,0,0.3C6.4,1.7,6.4,1.7,6.3,1.7L6.3,1.7z"/>
		</g>
		<g>
			<path fill="#D9D9D9" d="M10.8,6.3C10.8,6.3,10.9,6.3,10.8,6.3c0,0,0.1-0.1,0.1-0.1c0.1,0,0.2,0,0.3,0c0.1,0,0.2,0,0.3,0
				c0,0,0.1,0,0.1,0c0,0,0,0,0,0s0,0,0,0c0,0,0,0-0.1,0c-0.1,0-0.2,0-0.3,0c-0.1,0-0.2,0-0.3,0C11,6.4,10.9,6.4,10.8,6.3
				C10.9,6.3,10.8,6.3,10.8,6.3z"/>
		</g>
		<g>
			<path fill="#D9D9D9" d="M6.3,10.8C6.3,10.8,6.3,10.9,6.3,10.8c0,0,0.1,0.1,0.1,0.1c0,0.1,0,0.2,0,0.3c0,0.1,0,0.2,0,0.3
				c0,0,0,0.1,0,0.1c0,0,0,0,0,0s0,0,0,0c0,0,0,0,0-0.1c0-0.1,0-0.2,0-0.3c0-0.1,0-0.2,0-0.3C6.2,11,6.3,10.9,6.3,10.8
				C6.3,10.9,6.3,10.8,6.3,10.8z"/>
		</g>
		<g>
			<path fill="#D9D9D9" d="M1.7,6.3L1.7,6.3c0,0-0.1,0.1-0.1,0.1c-0.1,0-0.2,0-0.3,0s-0.2,0-0.3,0c0,0-0.1,0-0.1,0c0,0,0,0,0,0
				s0,0,0,0c0,0,0,0,0.1,0c0.1,0,0.2,0,0.3,0s0.2,0,0.3,0C1.7,6.2,1.7,6.3,1.7,6.3C1.7,6.3,1.7,6.3,1.7,6.3z"/>
		</g>
</svg>
