<?xml version="1.0" encoding="utf-8"?>
<!-- Generator: Adobe Illustrator 20.1.0, SVG Export Plug-In . SVG Version: 6.00 Build 0)  -->
<svg version="1.1" xmlns="http://www.w3.org/2000/svg" xmlns:xlink="http://www.w3.org/1999/xlink" x="0px" y="0px" width="30.4px"
   height="30.4px" viewBox="0 0 30.4 30.4" enable-background="new 0 0 30.4 30.4" xml:space="preserve" stroke-opacity="0.5" fill-opacity="0.5">
  <g>
      <path fill="#FFFFFF" d="M2.1,28.2c0,0,0,0,0-0.1c0-0.1,0-0.2,0.2-0.3c0.2-0.2,0.4-0.4,0.7-0.7s0.5-0.5,0.7-0.7
          c0.1-0.1,0.2-0.1,0.3-0.2c0.1,0,0.1,0,0.1,0s0,0,0,0.1c0,0.1,0,0.2-0.2,0.3c-0.2,0.2-0.4,0.4-0.7,0.7s-0.5,0.5-0.7,0.7
          c-0.1,0.1-0.2,0.1-0.3,0.2C2.2,28.2,2.1,28.2,2.1,28.2z"/>
  </g>
  <g>
      <path fill="#FFFFFF" d="M26.1,26.1c0,0,0.1,0,0.1,0c0.1,0,0.2,0.1,0.3,0.2c0.2,0.2,0.5,0.5,0.7,0.7s0.5,0.5,0.7,0.7
          c0.1,0.1,0.1,0.2,0.2,0.3c0,0.1,0,0.1,0,0.1s0,0-0.1,0c-0.1,0-0.2-0.1-0.3-0.2c-0.2-0.2-0.5-0.5-0.7-0.7s-0.5-0.5-0.7-0.7
          c-0.1-0.1-0.1-0.2-0.2-0.3C26.2,26.2,26.1,26.1,26.1,26.1z"/>
  </g>
  <circle fill="none" stroke="#FFFFFF" stroke-width="0.3163" stroke-miterlimit="10" cx="15.2" cy="15.2" r="7.4"/>
  <g>
      <path fill="#FFFFFF" d="M2,2c0,0,0.1,0,0.1,0c0.1,0,0.2,0.1,0.3,0.2C2.7,2.5,3,2.7,3.2,3C3.5,3.3,3.8,3.6,4,3.8
          C4.1,3.8,4.1,4,4.2,4.1c0,0.1,0.1,0.1,0.1,0.1s0,0-0.1-0.1C4,4.1,3.8,4.1,3.8,4C3.6,3.8,3.3,3.5,3,3.2C2.7,3,2.5,2.7,2.3,2.5
          C2.2,2.4,2.1,2.2,2.1,2.2C2.1,2.1,2,2,2,2z"/>
  </g>
  <g>
      <path fill="#FFFFFF" d="M26.1,4.2c0,0,0-0.1,0-0.1c0-0.1,0.1-0.2,0.2-0.3c0.2-0.2,0.5-0.5,0.7-0.7s0.5-0.5,0.7-0.7
          c0.1-0.1,0.2-0.1,0.3-0.2c0.1,0,0.1,0,0.1,0s0,0,0,0.1c0,0.1-0.1,0.2-0.2,0.3c-0.2,0.2-0.5,0.5-0.7,0.7S26.8,3.8,26.6,4
          c-0.1,0.1-0.2,0.1-0.3,0.2C26.2,4.2,26.1,4.2,26.1,4.2z"/>
  </g>
  <g>
      <path fill="#FFFFFF" d="M15.2,4.2C15.2,4.2,15.1,4.2,15.2,4.2C15.1,4.1,15,4,15,3.9c0-0.2,0-0.5,0-0.7s0-0.5,0-0.7
          c0-0.1,0.1-0.2,0.1-0.2c0-0.1,0.1-0.1,0.1-0.1s0,0,0.1,0.1c0,0.1,0.1,0.1,0.1,0.2c0,0.2,0,0.5,0,0.7s0,0.5,0,0.7
          C15.4,4,15.3,4.1,15.2,4.2C15.2,4.2,15.2,4.2,15.2,4.2z"/>
  </g>
  <g>
      <path fill="#FFFFFF" d="M26.1,15.2C26.1,15.2,26.2,15.1,26.1,15.2c0.1-0.1,0.2-0.2,0.3-0.2c0.2,0,0.5,0,0.7,0s0.5,0,0.7,0
          c0.1,0,0.2,0.1,0.2,0.1c0.1,0,0.1,0.1,0.1,0.1s0,0-0.1,0.1c-0.1,0-0.1,0.1-0.2,0.1c-0.2,0-0.5,0-0.7,0s-0.5,0-0.7,0
          C26.4,15.4,26.3,15.3,26.1,15.2C26.2,15.2,26.1,15.2,26.1,15.2z"/>
  </g>
  <g>
      <path fill="#FFFFFF" d="M15.2,26.1C15.2,26.1,15.2,26.2,15.2,26.1c0.1,0.1,0.2,0.2,0.2,0.3c0,0.2,0,0.5,0,0.7s0,0.5,0,0.7
          c0,0.1-0.1,0.2-0.1,0.2c0,0.1-0.1,0.1-0.1,0.1s0,0-0.1-0.1c0-0.1-0.1-0.1-0.1-0.2c0-0.2,0-0.5,0-0.7s0-0.5,0-0.7
          C15,26.4,15.1,26.3,15.2,26.1C15.1,26.2,15.2,26.1,15.2,26.1z"/>
  </g>
  <g>
      <path fill="#FFFFFF" d="M4.2,15.2C4.2,15.2,4.2,15.2,4.2,15.2c-0.1,0.1-0.2,0.2-0.3,0.2c-0.2,0-0.5,0-0.7,0s-0.5,0-0.7,0
          c-0.1,0-0.2-0.1-0.2-0.1c-0.1,0-0.1-0.1-0.1-0.1s0,0,0.1-0.1c0.1,0,0.1-0.1,0.2-0.1c0.2,0,0.5,0,0.7,0s0.5,0,0.7,0
          C4,15,4.1,15.1,4.2,15.2C4.2,15.1,4.2,15.2,4.2,15.2z"/>
  </g>
</svg>
