<?xml version="1.0" encoding="utf-8"?>
<svg version="1.1" id="Layer_1" xmlns="http://www.w3.org/2000/svg" xmlns:xlink="http://www.w3.org/1999/xlink" x="0px" y="0px"
	 viewBox="0 0 18.9 20.1" xml:space="preserve">
<path d="M18.9,15.9c0-0.6-1.4-1.4-4.1-2.4c-1.3-0.4-2.1-0.9-2.6-1.4c-0.5-0.5-0.7-1.1-0.7-1.9c0-0.4,0.2-0.8,0.5-1.4
	c0.3-0.5,0.5-0.9,0.6-1.1c0.1-0.4,0.3-1.3,0.6-2.5c0.1-0.7,0.2-1.3,0.3-1.8c0-0.3,0-0.6-0.1-0.9c-0.1-0.4-0.3-0.7-0.5-1.1
	c-0.3-0.4-0.7-0.7-1.3-1C10.9,0.1,10.3,0,9.4,0C8.6,0,7.9,0.1,7.4,0.4c-0.6,0.3-1,0.6-1.3,1C5.8,1.8,5.7,2.1,5.6,2.5
	C5.5,2.8,5.4,3.2,5.5,3.4c0,0.5,0.1,1.1,0.3,1.8c0.2,1.3,0.4,2.1,0.6,2.5c0.1,0.2,0.3,0.6,0.6,1.1c0.3,0.5,0.5,1,0.5,1.4
	c0,0.8-0.2,1.5-0.7,1.9c-0.5,0.5-1.3,0.9-2.6,1.4c-1.3,0.5-2.3,0.9-3,1.3S0,15.6,0,15.9v3v0h0c0,0,0,0,0,0.1c0,0.6,4.2,1.1,9.4,1.1
	s9.4-0.5,9.4-1.1c0,0,0,0,0-0.1h0V15.9z"/>
</svg>
