<?xml version="1.0" encoding="utf-8"?>
<!-- Generator: Adobe Illustrator 19.1.0, SVG Export Plug-In . SVG Version: 6.00 Build 0)  -->
<svg version="1.1" xmlns="http://www.w3.org/2000/svg" xmlns:xlink="http://www.w3.org/1999/xlink" x="0px" y="0px" width="102px" height="26.8px" viewBox="0 0 102 26.8" style="enable-background:new 0 0 102 26.8;" xml:space="preserve">
  <g class="svg-fill-1">
    <path d="M57.7,18.5c0-2.2,0-4.3,0-6.5c0-0.5-0.1-0.8-0.6-0.8c-0.5,0-0.7-0.4-0.7-0.8c0-0.8,0-1.6,0-2.3c0-0.6,0.4-0.9,0.9-1c1.8-0.3,3.4-0.1,4.6,1.5c0.2,0.3,0.3,0.3,0.5,0c3.3-3.2,8.8-1.8,10,2.7c0.5,2,0.4,4-0.3,5.9c-0.9,2.3-2.8,3.5-5.1,3.9c-1.2,0.2-2.3,0.3-3.5,0.1c-0.4-0.1-0.5,0-0.5,0.4c0,1.2,0,2.3,0,3.5c0,0.7-0.3,1-1.1,1c-1,0-2,0-3,0c-0.8,0-1.1-0.4-1.1-1.1C57.7,22.9,57.7,20.7,57.7,18.5z M62.9,14.8c0,0.7,0,1.2,0,1.8c0,0.3,0.1,0.4,0.4,0.4c0.7,0.1,1.5,0.1,2.2,0c0.9-0.2,1.5-0.7,1.7-1.5c0.3-0.9,0.3-1.9,0-2.8c-0.3-0.9-1.1-1.4-2.1-1.5c-1.1,0-1.8,0.5-2.1,1.4C62.8,13.4,63,14.2,62.9,14.8z"/>
    <path d="M50.1,15.3c-1.2,0-2.4,0-3.6,0c-0.6,0-0.5,0.2-0.3,0.6c0.6,1,1.5,1.2,2.5,1.3c1.3,0.1,2.5-0.1,3.7-0.6c0.9-0.3,1.1-0.2,1.4,0.7c0.2,0.6,0.4,1.2,0.6,1.8c0.2,0.7,0.1,1.1-0.5,1.4c-2.9,1.3-5.9,1.6-8.9,0.4c-2-0.8-3.1-2.3-3.6-4.3c-0.6-2.3-0.5-4.4,0.8-6.5c1.1-1.7,2.7-2.6,4.7-2.9c1.5-0.2,3-0.1,4.5,0.5c2.2,1,3.3,2.9,3.6,5.2c0.1,0.4,0,0.9,0,1.3c0,1-0.2,1.2-1.1,1.2C52.5,15.3,51.3,15.3,50.1,15.3z M47.7,12.7c0.4,0,0.9,0,1.3,0c0.6,0.1,0.7-0.2,0.5-0.7c-0.2-0.9-0.9-1.3-2-1.2c-0.8,0.1-1.6,0.9-1.7,1.6c0,0.3,0.2,0.3,0.3,0.3C46.8,12.7,47.2,12.7,47.7,12.7z"/>
    <path d="M93.5,15c0-1.1,0-2,0-3c0-0.4-0.1-0.6-0.5-0.5c0,0,0,0-0.1,0c-2,0-2,0-2-2.1c0-0.3,0-0.6,0-0.9c0-1,0.2-1.2,1.3-1.2c1.3,0,1.3,0,1.3-1.4c0-0.6,0-1.1,0-1.7c0-0.6,0.3-1,0.9-1c1.1,0,2.2,0,3.3,0c0.6,0,0.9,0.4,0.9,1c0,0.8,0,1.7,0,2.5c0,0.4,0.1,0.6,0.5,0.5c0.6,0,1.3,0,1.9,0c0.7,0,1,0.3,1,1c0,0.8,0,1.5,0,2.3c0,0.6-0.4,0.9-1,1c-0.7,0-1.3,0-2,0c-0.4,0-0.5,0.1-0.5,0.5c0,1.3,0,2.6,0,3.9c0,0.8,0.3,1,1,1.1c0.4,0,0.7,0,1.1-0.1c0.6-0.1,0.8,0.2,0.9,0.8c0.1,0.8,0.1,1.6,0.2,2.4c0,0.6-0.2,1.1-0.9,1.2c-1.7,0.3-3.4,0.5-5.1,0c-1.3-0.4-1.8-1.3-2.1-2.5C93.4,17.4,93.5,16.1,93.5,15z"/>
    <path d="M80.1,9.2c0,2.4,0,4.8,0,7.3c0,0.5,0.1,0.6,0.6,0.7c1.1,0.1,1.3,0.3,1.3,1.5c0,0.6,0,1.1,0,1.7c0,0.5-0.3,0.9-0.8,1c-1.3,0.2-2.5,0.3-3.8,0C75.9,20.8,75,19.7,75,18c0-1.2,0-2.4,0-3.7c0-4.2,0-8.3,0-12.5c0-1,0.2-1.2,1.2-1.2c1,0,1.9,0,2.9,0c0.8,0,1.1,0.3,1.1,1.1C80.1,4.2,80.1,6.7,80.1,9.2z"/>
    <path d="M31,15.9c0-1.3,0-2.6,0-3.9c0-0.5-0.1-0.7-0.6-0.8c-0.5,0-0.8-0.4-0.8-0.9c0-0.7,0-1.5,0-2.2c0-0.6,0.4-1,1-1.1c1.8-0.3,3.4-0.1,4.5,1.6c0.3,0.5,0.4,0,0.5-0.1c0.9-1.3,2.2-1.8,3.7-1.6c0.5,0.1,0.7,0.3,0.7,0.8c0,1.1,0,2.2-0.2,3.3c0,0.3-0.2,0.5-0.5,0.5c-0.1,0-0.3,0.1-0.5,0.1c-2.1-0.1-2.7,1.1-2.8,2.8c-0.1,1.7,0,3.5,0,5.3c0,1-0.3,1.2-1.3,1.3c-0.9,0-1.8,0-2.7,0c-0.9,0-1.2-0.3-1.2-1.2C31,18.6,31,17.2,31,15.9z"/>
    <path d="M84.1,13.5c0-1.7,0-3.4,0-5.1c0-0.8,0.3-1.1,1.1-1.1c1,0,1.9,0,2.9,0c0.9,0,1.1,0.3,1.2,1.2c0,2.6,0,5.2,0,7.8c0,0.5,0,0.8,0.6,0.9c0.6,0.1,1,0.5,0.9,1.2c-0.1,0.7,0,1.4-0.1,2.1c-0.1,0.5-0.3,0.8-0.8,0.8c-1.4,0.2-2.7,0.3-4.1,0c-1.3-0.3-1.8-1.1-1.8-2.4C84.1,17,84.1,15.3,84.1,13.5C84.1,13.5,84.1,13.5,84.1,13.5z"/>
    <path d="M89.7,2.9c0.1,1.8-1.1,3-3,3.1c-1.8,0.1-3.1-1.2-3.2-2.9c-0.1-1.8,1.2-3,3-3.1C88.4-0.1,89.7,1.1,89.7,2.9z"/>
    <path d="M14.7,1.2h-3.9C4.8,1.2,0,6.1,0,12v12.2c0,1.4,1.2,2.6,2.6,2.6h12.1c6,0,10.8-4.8,10.8-10.8v-4C25.5,6.1,20.7,1.2,14.7,1.2z M16.8,15.4L12.4,19c-1.1,0.9-2.8,0.1-2.8-1.4v-7.3c0-1.5,1.7-2.3,2.8-1.4l4.5,3.6C17.7,13.4,17.7,14.7,16.8,15.4z"/>
  </g>
</svg>
