<?xml version="1.0" encoding="utf-8"?>
<!-- Generator: Adobe Illustrator 20.1.0, SVG Export Plug-In . SVG Version: 6.00 Build 0)  -->
<svg version="1.1" xmlns="http://www.w3.org/2000/svg" xmlns:xlink="http://www.w3.org/1999/xlink" x="0px" y="0px" width="471.5px"
   height="471.5px" viewBox="0 0 471.5 471.5" enable-background="new 0 0 471.5 471.5" xml:space="preserve">
  <path id="background" stroke="#D1D3D4" stroke-width="4" stroke-miterlimit="10" d="M398.3,2h-325C33.9,2,2,33.9,2,73.2v325
    c0,39.3,31.9,71.2,71.2,71.2h325c39.3,0,71.2-31.9,71.2-71.2v-325C469.5,33.9,437.6,2,398.3,2z"/>
  <path id="detail" d="M235.7,75.4c-88.6,0-160.3,71.8-160.3,160.3s71.8,160.3,160.3,160.3s160.3-71.8,160.3-160.3
    S324.3,75.4,235.7,75.4z M266.2,136.7c-2.3,9.4-11.8,15.1-21.1,12.8c-9.4-2.3-15.1-11.8-12.8-21.1c2.3-9.4,11.8-15.1,21.1-12.8
    C262.8,117.8,268.5,127.3,266.2,136.7z M339.6,265.4c-0.8,0-1.5-0.1-2.3-0.2c-9.6-1.3-16.3-10.1-15-19.7
    c4.1-30.9-8.8-61.3-33.7-79.4c-7.8-5.7-9.6-16.6-3.9-24.4c5.7-7.8,16.6-9.6,24.4-3.9c35.4,25.6,53.7,68.7,47.9,112.4
    C355.7,259,348.2,265.4,339.6,265.4z"/>
</svg>
