<?xml version="1.0" encoding="utf-8"?>
<!-- Generator: Adobe Illustrator 20.1.0, SVG Export Plug-In . SVG Version: 6.00 Build 0)  -->
<svg version="1.1" xmlns="http://www.w3.org/2000/svg" xmlns:xlink="http://www.w3.org/1999/xlink" x="0px" y="0px" width="471.5px"
   height="471.5px" viewBox="0 0 471.5 471.5" enable-background="new 0 0 471.5 471.5" xml:space="preserve">
    <path id="background" stroke-width="4" stroke-miterlimit="10" d="M398.3,2h-325C33.9,2,2,33.9,2,73.2v325
        c0,39.3,31.9,71.2,71.2,71.2h325c39.3,0,71.2-31.9,71.2-71.2v-325C469.5,33.9,437.6,2,398.3,2z"/>
    <circle id="detail" cx="118.8" cy="112.8" r="49.3"/>
    <path id="detail" d="M323.7,190.5c-6-0.8-11.7-1.1-16.8-1.1c-12.4,0-21.9,1.7-27.3,2.7c-32.2,5.8-63.3,21.8-92.3,47.6
        c-24.1,21.5-47.1,49.8-68.2,84.2c-19.6,31.9-34.7,64.6-45.5,91.2c9,5.8,19.6,9.1,31.1,9.1h262.2c31.7,0,57.4-25.7,57.4-57.4
        V247.1C396.7,217.6,363.3,195.5,323.7,190.5z"/>
<!--
    <path id="detail" d="M59.4,402.2c11-26.4,25.7-57.1,44.3-87.6c20.2-33.1,42.2-60.8,65.5-82.7c-7.9-3-15.9-5.1-24-6.1
        c-4.6-0.6-8.8-0.8-12.7-0.8c-9.4,0-16.5,1.3-20.6,2c-22.6,4-44.2,14.5-64.7,31.4v108.4C47.2,380.2,51.8,392.4,59.4,402.2z"/>
-->
</svg>
