<?xml version="1.0" encoding="utf-8"?>
<!-- Generator: Adobe Illustrator 21.1.0, SVG Export Plug-In . SVG Version: 6.00 Build 0)  -->
<svg version="1.1" id="Capa_1" xmlns="http://www.w3.org/2000/svg" xmlns:xlink="http://www.w3.org/1999/xlink" x="0px" y="0px"
	 viewBox="0 0 35.8 35.8" style="enable-background:new 0 0 35.8 35.8;" xml:space="preserve">
  <path d="M3.4,0c3,0,5.8,0.4,8.6,1.2s5.3,1.9,7.7,3.3c2.4,1.4,4.6,3.1,6.6,5.1c2,2,3.7,4.2,5.1,6.6
      c1.4,2.4,2.5,5,3.3,7.7c0.8,2.8,1.2,5.6,1.2,8.6c0,0.9-0.3,1.7-1,2.4c-0.7,0.7-1.5,1-2.4,1c-0.9,0-1.7-0.3-2.4-1
      c-0.7-0.7-1-1.5-1-2.4c0-2.3-0.3-4.6-0.9-6.8c-0.6-2.2-1.5-4.2-2.6-6.1c-1.1-1.9-2.4-3.6-4-5.2c-1.6-1.6-3.3-2.9-5.2-4
      c-1.9-1.1-3.9-2-6.1-2.6S5.8,6.8,3.4,6.8c-0.9,0-1.7-0.3-2.4-1S0,4.3,0,3.4S0.3,1.7,1,1C1.7,0.3,2.5,0,3.4,0z M3.4,12.9
      c2.7,0,5.2,0.5,7.6,1.5s4.4,2.4,6.2,4.2c1.8,1.8,3.2,3.8,4.2,6.2c1,2.4,1.5,4.9,1.5,7.6c0,0.9-0.3,1.7-1,2.4c-0.7,0.7-1.5,1-2.4,1
      c-0.9,0-1.7-0.3-2.4-1c-0.7-0.7-1-1.5-1-2.4c0-1.7-0.3-3.4-1-4.9c-0.7-1.5-1.6-2.9-2.7-4c-1.1-1.1-2.5-2.1-4-2.7
      c-1.5-0.7-3.2-1-4.9-1c-0.9,0-1.7-0.3-2.4-1c-0.7-0.7-1-1.5-1-2.4s0.3-1.7,1-2.4C1.7,13.2,2.5,12.9,3.4,12.9z M9.7,30.8
      c0,0.7-0.1,1.3-0.4,1.9c-0.2,0.6-0.6,1.1-1,1.5c-0.4,0.4-0.9,0.8-1.5,1c-0.6,0.2-1.2,0.4-1.9,0.4c-0.7,0-1.3-0.1-1.9-0.4
      c-0.6-0.2-1.1-0.6-1.5-1c-0.4-0.4-0.8-0.9-1-1.5s-0.4-1.2-0.4-1.9c0-0.7,0.1-1.3,0.4-1.9c0.2-0.6,0.6-1.1,1-1.5
      c0.4-0.4,0.9-0.8,1.5-1C3.6,26.1,4.2,26,4.9,26c0.7,0,1.3,0.1,1.9,0.4c0.6,0.2,1.1,0.6,1.5,1c0.4,0.4,0.8,0.9,1,1.5
      C9.5,29.5,9.7,30.1,9.7,30.8z"/>
</svg>
