<?xml version="1.0" encoding="utf-8"?>
<svg version="1.1" xmlns="http://www.w3.org/2000/svg" xmlns:xlink="http://www.w3.org/1999/xlink" x="0px" y="0px" width="23.6px" height="23.6px" viewBox="-1 -1 24.6 24.6" enable-background="new 0 0 23.6 23.6" xml:space="preserve">
  <path d="M10,0c4.5,0,8.5,3.4,9.3,8.1c0.4,2.4,0,4.7-1.3,6.8c-0.1,0.1-0.1,0.2,0,0.3c1.7,1.7,3.3,3.3,5,5c0.9,0.9,0.8,2.1,0,2.9c-0.7,0.7-1.9,0.7-2.6,0c-0.2-0.2-0.4-0.4-0.7-0.6c-1.5-1.5-3-3-4.5-4.5c-0.1-0.1-0.2-0.1-0.4,0c-5.6,3.5-13,0.5-14.6-5.9C-1,6.7,2.4,1.2,7.9,0.2C8.5,0.1,9.1,0,10,0z M9.7,3.4c-3.5,0-6.3,2.8-6.4,6.3c0,3.5,2.8,6.4,6.3,6.4c3.5,0,6.3-2.8,6.4-6.3C16.1,6.2,13.2,3.4,9.7,3.4z"/>
</svg>
