<svg version="1.1" xmlns="http://www.w3.org/2000/svg" xmlns:xlink="http://www.w3.org/1999/xlink" x="0px" y="0px" width="26.5px"
	 height="26.5px" viewBox="0 0 26.5 26.5" enable-background="new 0 0 26.5 26.5" xml:space="preserve">
		<path d="M11.3,0.5c4.8,0,9.2,3.7,10,8.7c0.4,2.6,0,5.1-1.4,7.3
			c-0.1,0.2-0.1,0.2,0,0.4c1.8,1.8,3.6,3.6,5.4,5.4c0.9,0.9,0.9,2.3,0,3.1c-0.8,0.7-2,0.7-2.8,0c-0.2-0.2-0.5-0.5-0.7-0.7
			c-1.6-1.6-3.2-3.2-4.9-4.9c-0.1-0.1-0.2-0.1-0.4,0c-6,3.8-14,0.5-15.7-6.4C-0.6,7.7,3.1,1.8,9,0.7C9.6,0.6,10.3,0.5,11.3,0.5z
			 M11,4.1c-3.8,0-6.8,3-6.9,6.8c0,3.8,3,6.9,6.8,6.9c3.8,0,6.8-3.1,6.9-6.8C17.8,7.2,14.8,4.2,11,4.1z"/>
</svg>
