<?xml version="1.0" encoding="utf-8"?>
<!-- Generator: Adobe Illustrator 21.0.2, SVG Export Plug-In . SVG Version: 6.00 Build 0)  -->
<svg version="1.1" id="Layer_1" xmlns="http://www.w3.org/2000/svg" xmlns:xlink="http://www.w3.org/1999/xlink" x="0px" y="0px"
   viewBox="0 0 347.8 347.8" style="enable-background:new 0 0 347.8 347.8;" xml:space="preserve">

<path id="arrow" class="st0" d="M264.1,150.9l-76.5-76.5c-7.3-7.3-19.1-7.3-26.4-0.1l-77.3,76.5c-11.9,11.8-3.6,32.1,13.2,32.1h15.3V260
  c0,10.4,8.5,18.9,18.9,18.9h86.3c10.4,0,18.9-8.5,18.9-18.9v-77.1h14.4C267.5,182.9,275.9,162.7,264.1,150.9z"/>
<path class="st0" d="M173.9,0C78,0,0,78,0,173.9s78,173.9,173.9,173.9c95.9,0,173.9-78,173.9-173.9S269.8,0,173.9,0z M173.9,323.2
  c-82.3,0-149.3-67-149.3-149.3s67-149.3,149.3-149.3c82.3,0,149.3,67,149.3,149.3S256.2,323.2,173.9,323.2z"/>
</svg>
